<svg viewBox="0 0 480 480" height="480" width="480" xmlns="http://www.w3.org/2000/svg"><g transform="matrix(18,0,0,18,96,96)" style="fill:#000"
     ><path style="fill:#000" d="m5 3a3 3 0 0 1 6 0V8A3 3 0 0 1 5 8z"
        /><path style="fill:#000" d="M3.5 6.5A.5.5.0 0 1 4 7v1a4 4 0 0 0 8 0V7a.5.5.0 0 1 1 0V8a5 5 0 0 1-4.5 4.975V15h3a.5.5.0 0 1 0 1h-7a.5.5.0 0 1 0-1h3V12.975A5 5 0 0 1 3 8V7a.5.5.0 0 1 .5-.5z"
        /></g><path d="M465.43353 141.7721H389.82659C376.41618 114.31785 356.99422 93.052029 331.56069 77.974627 306.12716 62.897314 276.53179 55.358658 242.77457 55.358658v0c-33.75723.0-64.16185 7.538656-91.21388 22.615969-27.05202 15.077402-48.32369 36.680803-63.815025 64.810203-15.491329 28.1294-23.236994 60.64696-23.236994 97.55269v0c0 36.90577 7.745665 69.31084 23.236994 97.2152 15.491335 27.90437 36.763005 49.39523 63.815025 64.47259 27.05203 15.0774 57.45665 22.6161 91.21388 22.6161v0c47.16763.0 86.01156-13.72717 116.53179-41.18151 30.52023-27.45429 48.3237-64.5851 53.4104-111.39242v0H353.88439V222.10974H480v47.25739c-3.69942 38.70601-16.18497 74.14905-37.45665 106.32913-21.27167 32.17999-49.24855 57.60894-83.93063 76.28686C323.93064 470.66104 285.31792 480 242.77457 480v0C197.91908 480 156.99422 469.7609 120 449.2827 83.005781 428.80449 53.757226 400.33756 32.254335 363.88191 10.751445 327.42616.0 286.2447.0 240.33752v0C0 194.43039 10.751445 153.13643 32.254335 116.45565 53.757226 79.774955 83.005781 51.195484 120 30.717236 156.99422 10.239079 197.91908.0 242.77457.0v0c51.32948.0 96.763 12.376936 136.30057 37.130807 39.53757 24.753826 68.3237 59.634257 86.35839 104.641293z" style="stroke-width:.684311"
      /></svg>